<svg width="40" height="41" viewBox="0 0 40 41" fill="none" xmlns="http://www.w3.org/2000/svg">
<rect y="0.48645" width="40" height="40" rx="20" fill="#DC2626" fill-opacity="0.3"/>
<path d="M27.032 17.324C26.9745 17.0935 26.8621 16.8805 26.7043 16.703C26.5464 16.5256 26.3479 16.3891 26.1257 16.3052C23.9882 15.4802 20.5757 15.4865 20.3882 15.4865C20.2007 15.4865 16.7882 15.4802 14.6507 16.3052C14.4286 16.3891 14.2301 16.5256 14.0722 16.703C13.9144 16.8805 13.8019 17.0935 13.7445 17.324C13.582 17.9427 13.3882 19.0802 13.3882 20.9615C13.3882 22.8427 13.582 23.9802 13.7445 24.599C13.8019 24.8294 13.9144 25.0424 14.0722 25.2199C14.2301 25.3973 14.4286 25.5338 14.6507 25.6177C16.7007 26.4115 19.9132 26.4365 20.3445 26.4365H20.432C20.8632 26.4365 24.0757 26.4115 26.1257 25.6177C26.3479 25.5338 26.5464 25.3973 26.7043 25.2199C26.8621 25.0424 26.9745 24.8294 27.032 24.599C27.1945 23.9802 27.3882 22.8427 27.3882 20.9615C27.3882 19.0802 27.1945 17.9427 27.032 17.324ZM22.5257 21.1677L19.5257 23.1677C19.486 23.197 19.4376 23.2124 19.3882 23.2115C19.3468 23.2099 19.3063 23.1992 19.2695 23.1802C19.2295 23.1594 19.1961 23.128 19.173 23.0894C19.1498 23.0508 19.1378 23.0065 19.1382 22.9615V18.9615C19.1378 18.9164 19.1498 18.8721 19.173 18.8335C19.1961 18.7949 19.2295 18.7635 19.2695 18.7427C19.3094 18.7214 19.3542 18.7114 19.3993 18.7136C19.4445 18.7158 19.4881 18.7302 19.5257 18.7552L22.5257 20.7552C22.5606 20.7772 22.5893 20.8076 22.6092 20.8437C22.6291 20.8797 22.6396 20.9203 22.6396 20.9615C22.6396 21.0026 22.6291 21.0432 22.6092 21.0792C22.5893 21.1153 22.5606 21.1457 22.5257 21.1677Z" fill="#DC2626"/>
</svg>
