<svg width="40" height="41" viewBox="0 0 40 41" fill="none" xmlns="http://www.w3.org/2000/svg">
<rect y="0.48645" width="40" height="40" rx="20" fill="#3B82F6" fill-opacity="0.3"/>
<path d="M26.482 19.9866V24.9866C26.4803 25.6491 26.2164 26.2841 25.7479 26.7525C25.2795 27.221 24.6445 27.4849 23.982 27.4866H20.3882C20.2556 27.4866 20.1285 27.4339 20.0347 27.3402C19.9409 27.2464 19.8882 27.1192 19.8882 26.9866C19.8882 26.854 19.9409 26.7268 20.0347 26.633C20.1285 26.5393 20.2556 26.4866 20.3882 26.4866H23.982C24.3793 26.485 24.7599 26.3264 25.0408 26.0454C25.3218 25.7645 25.4803 25.3839 25.482 24.9866V24.8991C25.3216 24.9569 25.1525 24.9865 24.982 24.9866H23.982C23.5842 24.9866 23.2026 24.8286 22.9213 24.5473C22.64 24.266 22.482 23.8844 22.482 23.4866V20.9866C22.482 20.5888 22.64 20.2072 22.9213 19.9259C23.2026 19.6446 23.5842 19.4866 23.982 19.4866H25.457C25.3316 18.113 24.6947 16.8366 23.6726 15.9105C22.6504 14.9844 21.3175 14.4762 19.9382 14.4866H19.932C18.5519 14.4733 17.2175 14.9805 16.1947 15.9072C15.1719 16.8338 14.5358 18.1119 14.4132 19.4866H15.8882C16.2856 19.4882 16.6661 19.6468 16.9471 19.9278C17.228 20.2087 17.3866 20.5893 17.3882 20.9866V23.4866C17.3866 23.8839 17.228 24.2645 16.9471 24.5454C16.6661 24.8264 16.2856 24.985 15.8882 24.9866H14.8882C14.4909 24.985 14.1104 24.8264 13.8294 24.5454C13.5485 24.2645 13.3899 23.8839 13.3882 23.4866V19.9866C13.3882 19.1293 13.5578 18.2805 13.8872 17.489C14.2166 16.6975 14.6993 15.979 15.3075 15.3749C15.9157 14.7707 16.6374 14.2928 17.4311 13.9688C18.2248 13.6447 19.0747 13.4808 19.932 13.4866H19.982C21.7054 13.4883 23.3577 14.1736 24.5764 15.3922C25.795 16.6109 26.4803 18.2632 26.482 19.9866Z" fill="#3B82F6"/>
</svg>
