<svg width="40" height="41" viewBox="0 0 40 41" fill="none" xmlns="http://www.w3.org/2000/svg">
<rect y="0.48645" width="40" height="40" rx="20" fill="#0EA5E9" fill-opacity="0.3"/>
<path d="M28.3882 14.9865C27.7882 15.2865 27.1882 15.3865 26.4882 15.4865C27.1882 15.0865 27.6882 14.4865 27.8882 13.6865C27.2882 14.0864 26.5882 14.2865 25.7882 14.4865C25.1882 13.8865 24.2882 13.4865 23.3882 13.4865C21.2882 13.4865 19.6882 15.4865 20.1882 17.4865C17.4882 17.3865 15.0882 16.0865 13.3882 14.0865C12.4882 15.5865 12.9882 17.4865 14.3882 18.4865C13.8882 18.4865 13.3882 18.2865 12.8882 18.0865C12.8882 19.5865 13.9882 20.9864 15.4882 21.3864C14.9882 21.4864 14.4882 21.5865 13.9882 21.4865C14.3882 22.7865 15.5882 23.7864 17.0882 23.7864C15.8882 24.6864 14.0882 25.1865 12.3882 24.9865C13.8882 25.8864 15.5882 26.4865 17.3882 26.4865C23.4882 26.4865 26.8882 21.3864 26.6882 16.6865C27.3882 16.2864 27.9882 15.6865 28.3882 14.9865Z" fill="#73D5FF"/>
</svg>
