<svg width="40" height="41" viewBox="0 0 40 41" fill="none" xmlns="http://www.w3.org/2000/svg">
<rect y="0.48645" width="40" height="40" rx="20" fill="#6366F1" fill-opacity="0.3"/>
<path d="M28.3424 22.8584L26.2174 15.7834C26.1766 15.6403 26.1035 15.5085 26.0038 15.398C25.9042 15.2875 25.7805 15.2013 25.6424 15.1459H25.6049L25.6424 15.1334C24.9451 14.8541 24.2232 14.6406 23.4861 14.4959C23.4217 14.4832 23.3554 14.4833 23.291 14.4962C23.2266 14.5091 23.1654 14.5345 23.1108 14.5711C23.0563 14.6077 23.0095 14.6546 22.973 14.7093C22.9366 14.764 22.9114 14.8253 22.8986 14.8897C22.885 14.9537 22.8842 15.0199 22.8963 15.0842C22.9085 15.1486 22.9333 15.2099 22.9694 15.2646C23.0054 15.3193 23.052 15.3662 23.1064 15.4027C23.1608 15.4392 23.2219 15.4645 23.2861 15.4772C23.5674 15.5334 23.8424 15.6022 24.1111 15.6772C24.2101 15.7286 24.2891 15.8116 24.3355 15.913C24.3819 16.0144 24.393 16.1284 24.3672 16.2369C24.3413 16.3454 24.2799 16.4421 24.1928 16.5117C24.1056 16.5813 23.9977 16.6197 23.8861 16.6209H23.8361C22.873 16.3698 21.8815 16.2437 20.8861 16.2459C19.9142 16.243 18.9459 16.3649 18.0049 16.6084C17.8852 16.64 17.758 16.6261 17.6479 16.5693C17.5379 16.5124 17.4529 16.4168 17.4093 16.3009C17.3657 16.185 17.3667 16.057 17.4121 15.9418C17.4575 15.8266 17.544 15.7323 17.6549 15.6772H17.6611C17.9299 15.6022 18.2049 15.5334 18.4861 15.4772C18.5506 15.4645 18.6119 15.4392 18.6665 15.4028C18.7212 15.3664 18.7682 15.3196 18.8047 15.265C18.8413 15.2105 18.8668 15.1492 18.8797 15.0848C18.8926 15.0204 18.8926 14.9541 18.8799 14.8897C18.8527 14.7604 18.7761 14.6468 18.6663 14.5732C18.5565 14.4996 18.4223 14.4719 18.2924 14.4959C17.5527 14.6439 16.8286 14.8615 16.1299 15.1459C15.9918 15.2013 15.8681 15.2875 15.7685 15.398C15.6688 15.5085 15.5957 15.6403 15.5549 15.7834L13.4299 22.8584C13.3748 23.0434 13.3744 23.2404 13.4287 23.4256C13.483 23.6108 13.5898 23.7763 13.7361 23.9022C13.7936 23.9576 13.8542 24.0097 13.9174 24.0584H13.9236C14.9361 24.8834 16.2674 25.5147 17.7674 25.8772C17.8058 25.8895 17.8458 25.8958 17.8861 25.8959C18.0098 25.8979 18.1297 25.854 18.2229 25.7727C18.316 25.6914 18.3757 25.5785 18.3905 25.4557C18.4053 25.3329 18.374 25.2091 18.3028 25.108C18.2316 25.0069 18.1255 24.9358 18.0049 24.9084C17.3306 24.7455 16.675 24.513 16.0486 24.2147C15.9629 24.1344 15.9082 24.0264 15.8941 23.9098C15.88 23.7932 15.9075 23.6753 15.9716 23.5769C16.0357 23.4785 16.1325 23.4058 16.2448 23.3715C16.3572 23.3373 16.478 23.3437 16.5861 23.3897C17.7736 23.9147 19.2674 24.2459 20.8861 24.2459C22.5049 24.2459 23.9986 23.9147 25.1861 23.3897C25.2943 23.3437 25.4151 23.3373 25.5275 23.3715C25.6398 23.4058 25.7366 23.4785 25.8007 23.5769C25.8648 23.6753 25.8923 23.7932 25.8782 23.9098C25.8641 24.0264 25.8094 24.1344 25.7236 24.2147C25.0973 24.513 24.4417 24.7455 23.7674 24.9084C23.6468 24.9358 23.5407 25.0069 23.4695 25.108C23.3983 25.2091 23.367 25.3329 23.3818 25.4557C23.3966 25.5785 23.4563 25.6914 23.5494 25.7727C23.6426 25.854 23.7625 25.8979 23.8861 25.8959C23.9265 25.8958 23.9665 25.8895 24.0049 25.8772C25.5049 25.5147 26.8361 24.8834 27.8486 24.0584H27.8549C27.9181 24.0097 27.9787 23.9576 28.0361 23.9022C28.1825 23.7763 28.2893 23.6108 28.3436 23.4256C28.3979 23.2404 28.3975 23.0434 28.3424 22.8584ZM18.8861 21.9959C18.7378 21.9959 18.5928 21.952 18.4695 21.8695C18.3461 21.7871 18.25 21.67 18.1932 21.533C18.1365 21.3959 18.1216 21.2451 18.1506 21.0996C18.1795 20.9541 18.2509 20.8205 18.3558 20.7156C18.4607 20.6107 18.5943 20.5393 18.7398 20.5104C18.8853 20.4814 19.0361 20.4963 19.1732 20.553C19.3102 20.6098 19.4273 20.7059 19.5098 20.8293C19.5922 20.9526 19.6361 21.0976 19.6361 21.2459C19.6361 21.4449 19.5571 21.6356 19.4165 21.7763C19.2758 21.9169 19.0851 21.9959 18.8861 21.9959ZM22.8861 21.9959C22.7378 21.9959 22.5928 21.952 22.4695 21.8695C22.3461 21.7871 22.25 21.67 22.1932 21.533C22.1365 21.3959 22.1216 21.2451 22.1506 21.0996C22.1795 20.9541 22.2509 20.8205 22.3558 20.7156C22.4607 20.6107 22.5943 20.5393 22.7398 20.5104C22.8853 20.4814 23.0361 20.4963 23.1732 20.553C23.3102 20.6098 23.4273 20.7059 23.5098 20.8293C23.5922 20.9526 23.6361 21.0976 23.6361 21.2459C23.6361 21.4449 23.5571 21.6356 23.4165 21.7763C23.2758 21.9169 23.0851 21.9959 22.8861 21.9959Z" fill="#6366F1"/>
</svg>
